<?xml version="1.0" encoding="utf-8"?>
<!-- Generator: Adobe Illustrator 24.1.2, SVG Export Plug-In . SVG Version: 6.00 Build 0)  -->
<svg version="1.1" id="Layer_1" xmlns="http://www.w3.org/2000/svg" xmlns:xlink="http://www.w3.org/1999/xlink" x="0px" y="0px"
	 viewBox="0 0 10000 10000" style="enable-background:new 0 0 10000 10000;" xml:space="preserve">
<style type="text/css">
	.st0{fill:#E4B122;}
	.st1{fill:#82A727;}
	.st2{fill:#FEFEFD;}
</style>
<path class="st0" d="M0.3,8532.3c0-127.7,0-255.4,0-383.1c183.1-323,320.1-641.1,220.5-1039.7c-189-756.9-140.2-1508.8,204.6-2219.1
	c836.5-1722.9,2256.6-2631,4113.7-2918.8c379.7,215.6,737.2,469.1,1140,645.7c503.3,220.7,1013.5,204.5,1531.4,74
	c63.4,94.9,145.5,206.4,84,309.6c-70.5,118.3-205.4,37.1-313.2,30.6c-13.9-0.8-27.3-7.8-41.3-9.4c-52.3-6-129.4-43.7-136,40.4
	c-5.2,66.6,55.3,121.4,130.7,97.2c129.8-41.7,251.7,8.4,377.1,15.6c6.8,44.6,6.1,92.4,51.1,120.9c124.6,133.5,233.5,292,455.1,259
	c48.3-7.2,83.8,39.1,82.3,80.8c-7,195.2,86.5,372,96.5,563.2c42,807-75,1585.4-467.1,2300.7C6753.1,7917,5659.6,8958,4053.8,9377.3
	c-121,31.6-247.4,55.2-351.4,134c-297.9,0-595.7,0-893.6,0c-92.6-85.4-214-110-328.2-137.7c-264-64-535.3-135.9-732.9-316.6
	C1402,8740.8,1029.1,8640.8,575,8745.5C357.3,8795.7,137.2,8750.3,0.3,8532.3z"/>
<path class="st1" d="M4539.2,1971.6c-394-425.4-873.5-729.7-1429.8-972.8C3400.3,825,3690.4,767.6,3977.1,707
	c262.9-55.6,530.5-89,795-137.7c72.2-13.3,156.6-6.9,206.8-81c255.3,0,510.6,0,765.9,0c46.7,99.8,120.8,173.4,218.2,223.3
	c254.8,130.8,508.1,262.6,543.8,629.5c104-155.2,88.6-282.1,96.7-405.3c3.9-58.6-52.3-151.5,78.2-150.2
	c101.6,1,163.5,44.8,172,145.8c5.2,62.7,1,127.7-9.3,190c-13.6,82.4-2.9,154.2,56.2,215.8c85.3,88.9,122.3,172.9-7.1,260.2
	c-80.4,54.3-15,100.6,27.1,130.5c299.4,212.8,591.2,438.6,905,627.8c298.1,179.8,510.7,132.9,767.4-100.1
	c46.5-42.2,100.5-137.1,168.6-74.7c75.2,68.9,36.3,155.4-43.2,215.4c-173.1,130.6-311,319.3-543.7,352.5
	c-128.6,18.4-67.1,160.1-154,204c-220.8,111.5-438.7,228.5-657.7,343.4c-45-28.5-44.3-76.3-51.1-120.9
	c221.9-257.4,580.2-327.9,795-550.8c-317.8-208.3-616.2-151.8-896.4,66.9c-517.9,130.5-1028.1,146.7-1531.4-74
	C5276.4,2440.8,4918.9,2187.3,4539.2,1971.6z M4379,901.6c67-16.3,135.5-40.3,149.3-120.3c9.2-53-40-71.1-80.8-68.2
	c-64.2,4.6-151-12.7-157.5,89.1C4286.7,854.7,4317.8,893.8,4379,901.6z"/>
<path class="st1" d="M10000,5382.8c-200.7,311.1-225.9,673.2-295.8,1022.1c-18,89.7-29.6,180.6-54.4,335
	c-287.4-795.9-742.4-1438-1086.3-2137.9c-220.5-448.7-223.6-926.2-129.5-1412.9c34-176,223.6-237.2,248.3-409.6
	c6-41.7,38.1-2.6,60.4,3.8c635.9,180.9,977.9,633.2,1153.8,1241.8c25.1,86.8,34.7,181.6,103.4,251.1
	C10000,4645.1,10000,5013.9,10000,5382.8z"/>
<path class="st2" d="M7210.6,2691.3c280.2-218.7,578.6-275.3,896.4-66.9c-214.8,222.9-573.2,293.4-795,550.8
	c-125.4-7.2-247.3-57.3-377.1-15.6c-75.4,24.3-135.9-30.6-130.7-97.2c6.6-84.1,83.7-46.4,136-40.4c13.9,1.6,27.4,8.6,41.3,9.4
	c107.8,6.5,242.6,87.7,313.2-30.6C7356.2,2897.8,7274,2786.3,7210.6,2691.3z"/>
</svg>
